<svg width="55" height="55" viewBox="0 0 55 55" fill="none" xmlns="http://www.w3.org/2000/svg">
<g filter="url(#filter0_d_1_102)">
<circle opacity="0.1" cx="29.5" cy="21.6738" r="21.5" fill="#F6762C"/>
<path d="M16.8079 14.8666H8.26931C7.08325 14.8666 6.07531 15.2817 5.24501 16.1117C4.41511 16.9418 4 17.9497 4 19.1359V27.6742C4 28.8602 4.41487 29.868 5.24501 30.698C6.07523 31.5279 7.08348 31.9432 8.26931 31.9432H13.2501C13.8428 31.9432 14.3469 32.1508 14.762 32.5658C15.1772 32.9805 15.3846 33.4848 15.3846 34.078V34.7891C15.3846 36.3605 14.8286 37.7017 13.717 38.8136C12.6052 39.9251 11.2638 40.481 9.6922 40.481H8.26931C7.88364 40.481 7.55023 40.6222 7.26845 40.9037C6.98691 41.1851 6.84602 41.5188 6.84602 41.9042V44.7507C6.84602 45.1355 6.98691 45.4698 7.26845 45.7513C7.55046 46.0327 7.88356 46.174 8.26931 46.174H9.69228C11.2341 46.174 12.7054 45.8734 14.1063 45.2732C15.5071 44.673 16.7189 43.8611 17.7418 42.8383C18.7645 41.8153 19.5761 40.6038 20.1764 39.2028C20.7767 37.802 21.0769 36.3308 21.0769 34.7892V19.1356C21.0769 17.9494 20.6618 16.9416 19.8318 16.1116C19.0018 15.2816 17.9937 14.8666 16.8079 14.8666Z" fill="#F6762C"/>
<path d="M39.7546 16.1115C38.9247 15.2816 37.9167 14.8665 36.7306 14.8665H28.1923C27.0062 14.8665 25.9983 15.2816 25.1683 16.1115C24.3384 16.9418 23.9235 17.9496 23.9235 19.1358V27.6741C23.9235 28.8601 24.3384 29.8679 25.1683 30.6979C25.9983 31.5278 27.0063 31.9431 28.1923 31.9431H33.1731C33.7658 31.9431 34.2703 32.1507 34.6854 32.5656C35.1 32.9806 35.3079 33.4846 35.3079 34.0779V34.789C35.3079 36.3604 34.7519 37.7015 33.64 38.8135C32.5284 39.925 31.1872 40.4809 29.6155 40.4809H28.1923C27.8069 40.4809 27.4732 40.6221 27.1918 40.9036C26.9101 41.185 26.769 41.5187 26.769 41.9041V44.7506C26.769 45.1354 26.9101 45.4697 27.1918 45.7512C27.4731 46.0326 27.8069 46.1739 28.1923 46.1739H29.6155C31.1571 46.1739 32.6283 45.8732 34.0294 45.2731C35.43 44.6729 36.6416 43.861 37.6646 42.8381C38.6874 41.8152 39.4996 40.6033 40.0995 39.2027C40.6997 37.8022 41.0001 36.3307 41.0001 34.7891V19.1354C40.9998 17.9493 40.5851 16.9415 39.7546 16.1115Z" fill="#F6762C"/>
</g>
<defs>
<filter id="filter0_d_1_102" x="0" y="0.173828" width="55" height="54.0001" filterUnits="userSpaceOnUse" color-interpolation-filters="sRGB">
<feFlood flood-opacity="0" result="BackgroundImageFix"/>
<feColorMatrix in="SourceAlpha" type="matrix" values="0 0 0 0 0 0 0 0 0 0 0 0 0 0 0 0 0 0 127 0" result="hardAlpha"/>
<feOffset dy="4"/>
<feGaussianBlur stdDeviation="2"/>
<feComposite in2="hardAlpha" operator="out"/>
<feColorMatrix type="matrix" values="0 0 0 0 0 0 0 0 0 0 0 0 0 0 0 0 0 0 0.25 0"/>
<feBlend mode="normal" in2="BackgroundImageFix" result="effect1_dropShadow_1_102"/>
<feBlend mode="normal" in="SourceGraphic" in2="effect1_dropShadow_1_102" result="shape"/>
</filter>
</defs>
</svg>
